<svg width="48" height="39" viewBox="0 0 48 39" fill="none" xmlns="http://www.w3.org/2000/svg">
<path fill-rule="evenodd" clip-rule="evenodd" d="M6.88224 7.31691L15.175 10.1151C15.8579 10.4153 19.1008 11.6055 24.8511 10.1752C32.1149 8.36698 47.8416 5.23561 48 5.20264L47.4145 2.23725C47.4087 2.23843 47.3653 2.24667 47.3101 2.25844L32.3214 0.138289C30.6729 -0.0947983 28.0119 -0.0265202 26.3775 0.292504L6.33901 4.1926C3.73197 4.05722 1.25282 5.66411 0.422131 8.26928C-0.056569 9.77257 0.0771854 11.3748 0.797582 12.7745C1.16599 13.4902 1.66816 14.1082 2.26771 14.6097C1.36545 15.3161 0.656788 16.2884 0.28251 17.4609C-0.195017 18.9642 -0.0612622 20.5664 0.657961 21.9673C1.04867 22.7254 1.59307 23.3646 2.23838 23.8767C1.3502 24.5807 0.652095 25.5484 0.281337 26.7079C-0.19619 28.2112 -0.0624355 29.8122 0.656788 31.2131C1.37836 32.6151 2.59975 33.6511 4.09686 34.1314L18.5435 38.7661C19.3367 39.0203 20.6367 39.0769 21.4486 38.8885L46.8091 33.059C46.8091 33.059 46.6578 32.3997 46.4724 31.5863C46.287 30.7728 45.4786 30.2631 44.6667 30.4503L21.5788 35.7548C20.7681 35.9419 19.4681 35.8854 18.6737 35.6323L5.01554 31.2519C4.28458 31.0188 3.68738 30.5103 3.33657 29.8275C2.98458 29.1447 2.91888 28.3631 3.15354 27.6308C3.63576 26.1158 5.25606 25.2858 6.76608 25.7603C6.7696 25.7461 15.1234 28.4243 18.5447 29.5179C19.3378 29.7722 20.6378 29.8287 21.4497 29.6403L46.8103 23.812C46.8103 23.812 46.6589 23.1516 46.4736 22.3381C46.2882 21.5247 45.4798 21.0149 44.6679 21.2021L21.58 26.5078C20.7692 26.6938 19.4692 26.6373 18.6749 26.3854L5.01554 22.0038C4.28458 21.7707 3.68738 21.2621 3.33657 20.5794C2.98458 19.8966 2.91888 19.1149 3.15354 18.3827C3.63576 16.8676 5.25606 16.0365 6.76608 16.5121C6.76726 16.5074 15.236 19.2232 18.6843 20.3274C19.4763 20.5817 20.7774 20.6382 21.5882 20.4499L46.9487 14.6203C46.9487 14.6203 46.7974 13.9623 46.612 13.1465C46.4254 12.3342 45.6171 11.8233 44.8063 12.0116L21.7184 17.315C20.9077 17.5033 19.6077 17.4468 18.8134 17.1925L5.15399 12.8121C4.42303 12.5779 3.82583 12.0705 3.47502 11.3865C3.12303 10.7037 3.05733 9.92208 3.29199 9.18985C3.77421 7.67714 5.39334 6.83426 6.88224 7.31691Z" fill="white"/>
</svg>
