<svg xmlns="http://www.w3.org/2000/svg" width="135" height="135" fill="none" viewBox="0 0 135 135">
    <circle cx="67.5" cy="67.5" r="67.5" fill="url(#prefix__paint0_linear)" fill-opacity=".77"/>
    <path fill="#fff" d="M64.001 82c0-3.163-1.962-4-3-4h-6c-.267.018-.534-.022-.785-.117-.25-.094-.477-.241-.667-.43-.189-.19-.336-.417-.43-.667-.095-.25-.135-.518-.118-.785v-3.728c0-.142-.03-.282-.088-.411-.058-.13-.143-.244-.249-.338-1.003-.924-2.3-1.464-3.663-1.523-.115.014-.233.005-.345-.027-.112-.032-.216-.086-.308-.158-.09-.073-.166-.163-.222-.265-.056-.102-.092-.214-.104-.33l4.855-8.8c.081-.148.124-.314.124-.482V58c.004-3.447 1.375-6.751 3.812-9.188 2.437-2.437 5.742-3.808 9.188-3.812v-2c-3.977.004-7.79 1.586-10.601 4.398-2.813 2.812-4.394 6.625-4.399 10.602v1.68l-4.876 8.837c-.081.148-.124.314-.124.483-.011.397.058.792.205 1.161.147.37.367.705.648.986.281.28.616.501.986.648.369.147.764.216 1.161.205.728.04 1.425.301 2 .749V76c-.015.53.077 1.057.273 1.55.195.492.49.94.864 1.314.375.374.822.669 1.314.864.493.196 1.02.288 1.55.273h5.971c.171.01 1.028.16 1.028 2v8c0 .265.106.52.293.707.188.187.442.293.707.293h8v-2h-7v-7zM88.001 77.89c-.144.6-1.108 4.11-4 4.11-.265 0-.52.106-.707.294-.188.187-.293.442-.293.707v6h-2v2h3c.265 0 .52-.106.707-.293.188-.188.293-.442.293-.707v-6.092c3.126-.591 4.616-3.89 4.98-5.712.013-.065.02-.13.02-.196V68h-2v9.89z"/>
    <path fill="#fff" d="M77.001 75.185V70.95c2.718-.196 5.32-1.182 7.485-2.835 2.166-1.654 3.802-3.904 4.707-6.475.905-2.57 1.04-5.349.388-7.995-.652-2.645-2.063-5.043-4.058-6.899-1.995-1.856-4.49-3.088-7.175-3.547-2.687-.458-5.448-.122-7.946.967-2.498 1.089-4.624 2.884-6.116 5.164s-2.287 4.946-2.285 7.67h2c.002-2.57.831-5.073 2.365-7.137 1.533-2.065 3.69-3.581 6.15-4.326 2.462-.745 5.097-.68 7.518.188 2.42.868 4.498 2.49 5.926 4.629 1.428 2.138 2.13 4.68 2.005 7.247-.127 2.569-1.076 5.028-2.707 7.016-1.631 1.988-3.858 3.398-6.353 4.024-2.494.625-5.123.432-7.499-.551l-.765 1.848c1.389.572 2.861.914 4.36 1.015v4.232c-.583.206-1.088.587-1.446 1.091-.358.504-.552 1.106-.554 1.725v10c0 .795.316 1.558.879 2.121.562.563 1.325.879 2.121.879s1.559-.316 2.121-.879c.563-.563.879-1.326.879-2.121V78c-.003-.619-.196-1.22-.554-1.725-.358-.504-.863-.885-1.446-1.091zm0 12.816c0 .265-.105.52-.293.707-.188.187-.442.293-.707.293-.265 0-.52-.106-.707-.293C75.106 88.52 75 88.266 75 88V78c0-.266.105-.52.293-.707.187-.188.442-.293.707-.293.265 0 .52.105.707.293.188.187.293.442.293.707v10z"/>
    <path fill="#fff" d="M69.001 60c-.265 0-.52.106-.707.294l-7 7 1.414 1.414L69.415 62h4.666c.266 0 .52-.106.707-.293l6.213-6.213V59h2v-6c0-.265-.105-.52-.293-.707-.187-.188-.441-.293-.707-.293h-7v2h4.666l-6 6h-4.666z"/>
    <defs>
        <linearGradient id="prefix__paint0_linear" x1="67.5" x2="67.5" y1="0" y2="135" gradientUnits="userSpaceOnUse">
            <stop stop-color="#6382F5"/>
            <stop offset="1" stop-color="#6382F5" stop-opacity=".93"/>
        </linearGradient>
    </defs>
</svg>
