<svg xmlns="http://www.w3.org/2000/svg" width="80" height="80" fill="none" viewBox="0 0 80 80">
    <circle cx="40" cy="40" r="40" fill="#0090D0" fill-opacity=".19"/>
    <g fill="#078CC8" clip-path="url(#prefix__clip0)">
        <path d="M40 26.344c.157 0 .309-.063.42-.174.111-.112.174-.263.174-.42v-4.156c0-.158-.063-.309-.174-.42-.111-.111-.263-.174-.42-.174-.157 0-.309.063-.42.174-.111.111-.174.262-.174.42v4.156c0 .157.063.308.174.42.111.111.263.174.42.174zM34.569 26.813c.041.114.117.213.217.283.1.07.219.108.34.108.07 0 .139-.013.204-.037.073-.026.14-.067.198-.12.058-.052.104-.116.137-.187.033-.07.052-.147.055-.225.003-.078-.009-.155-.035-.229l-.712-1.953c-.055-.145-.166-.263-.308-.328-.142-.064-.303-.07-.45-.017-.146.053-.265.162-.332.303-.067.14-.076.302-.025.449l.71 1.953zM25.563 32.35l1.8 1.04c.136.078.298.1.45.059.152-.041.282-.14.36-.277.08-.137.1-.299.06-.45-.04-.153-.14-.283-.277-.361l-1.8-1.04c-.067-.038-.142-.064-.22-.074-.076-.01-.155-.005-.23.015-.076.02-.146.055-.208.103-.062.047-.114.107-.153.174-.039.068-.064.142-.074.22-.01.077-.005.155.015.23.02.076.055.147.102.208.048.062.107.114.175.153zM23.92 43.43c.035 0 .07-.004.104-.01l2.046-.36c.155-.028.293-.116.383-.245.09-.13.126-.289.098-.444-.027-.155-.115-.293-.244-.383-.129-.09-.288-.126-.444-.099l-2.046.361c-.146.026-.277.106-.368.224-.09.117-.134.265-.12.413.012.148.08.285.19.386.11.1.252.156.4.156zM30.386 50.534l-1.336 1.592c-.052.06-.091.129-.116.204-.025.074-.034.153-.028.232.006.079.028.155.064.225.036.07.086.132.146.183.06.05.13.089.206.112.075.024.154.032.232.024.079-.007.155-.03.224-.067.07-.038.131-.088.18-.15l1.337-1.59c.051-.06.09-.13.115-.205.025-.074.035-.153.028-.232-.006-.078-.028-.155-.064-.225-.036-.07-.085-.132-.146-.183-.06-.05-.13-.089-.205-.112-.075-.023-.154-.032-.233-.024-.078.007-.154.03-.224.067-.07.038-.13.088-.18.15zM30.386 29.466c.05.06.11.111.18.149.07.037.146.06.224.067.079.008.158 0 .233-.024.075-.023.145-.062.205-.112s.11-.113.146-.183c.036-.07.058-.147.064-.225.007-.079-.003-.158-.028-.233-.024-.074-.064-.144-.115-.203l-2.672-3.184c-.05-.061-.111-.112-.18-.149-.07-.037-.146-.06-.225-.068-.078-.007-.157.001-.232.025-.076.023-.145.061-.206.112-.06.05-.11.113-.146.183-.036.07-.058.146-.064.225-.006.078.003.157.028.232.025.075.064.144.116.204l2.672 3.184zM25.967 38.12c.148 0 .291-.056.4-.157.11-.1.178-.238.19-.386.014-.148-.03-.295-.12-.413s-.221-.197-.368-.223l-4.093-.722c-.155-.027-.314.008-.443.098-.13.09-.217.228-.245.384-.027.155.008.314.099.443.09.13.228.217.383.245l4.093.721c.034.006.069.01.104.01zM27.362 46.61l-3.6 2.079c-.136.078-.235.208-.276.36-.04.153-.02.315.06.451.078.136.208.236.36.277.152.04.314.02.45-.06l3.6-2.078c.068-.039.127-.09.174-.153.048-.061.083-.132.103-.207.02-.076.025-.154.015-.232-.01-.077-.035-.151-.074-.219-.04-.067-.091-.127-.153-.174-.062-.048-.133-.082-.208-.103-.075-.02-.154-.025-.231-.015-.078.01-.152.036-.22.075zM44.67 27.167c.066.024.134.036.203.036.122 0 .241-.037.341-.107.1-.07.176-.169.218-.284l.71-1.952c.051-.147.042-.309-.025-.45-.067-.14-.186-.249-.333-.302-.146-.053-.307-.047-.45.017-.141.065-.252.183-.307.328l-.711 1.953c-.027.073-.039.151-.036.23.004.077.022.154.055.224s.08.134.137.187c.058.053.125.093.199.12zM51.827 33.172c.078.136.208.236.36.276.152.041.314.02.45-.059l1.8-1.039c.068-.039.127-.09.175-.153.047-.061.082-.132.102-.207.02-.076.026-.154.016-.232-.01-.077-.036-.151-.075-.219s-.09-.127-.153-.174c-.062-.048-.132-.082-.208-.103-.075-.02-.153-.025-.23-.015-.078.01-.153.036-.22.075l-1.8 1.039c-.067.039-.127.09-.174.152-.048.062-.082.133-.103.208-.02.076-.025.154-.015.231.01.078.036.152.075.22zM56.183 42.25l-2.046-.36c-.155-.028-.315.008-.444.098s-.217.228-.244.383c-.027.155.008.315.098.444.09.13.229.217.384.244l2.046.361c.034.006.069.01.104.01.148 0 .291-.056.4-.157.11-.1.178-.238.191-.386.013-.148-.03-.295-.12-.413-.091-.118-.222-.197-.369-.223zM49.614 50.534c-.05-.06-.11-.111-.18-.149-.07-.037-.146-.06-.224-.067-.079-.008-.158 0-.233.024-.075.023-.145.062-.205.112s-.11.113-.147.183c-.036.07-.057.147-.064.225-.006.079.004.158.028.232.025.075.064.145.116.204l1.336 1.592c.102.117.246.19.402.202.155.013.309-.037.428-.137.12-.1.195-.243.21-.398.014-.155-.033-.31-.13-.43l-1.337-1.593zM49.159 29.677c.087 0 .172-.018.251-.055.079-.036.148-.09.204-.156l2.672-3.184c.052-.06.091-.129.116-.204.024-.075.034-.154.028-.232-.007-.079-.028-.155-.064-.225-.036-.07-.086-.133-.147-.183-.06-.05-.13-.089-.205-.112-.075-.024-.154-.032-.233-.025-.078.008-.154.03-.224.068-.07.037-.13.088-.18.15l-2.672 3.183c-.073.086-.12.192-.134.304-.015.112.003.226.05.328.048.103.124.19.22.25.094.061.205.093.318.093zM58.023 36.219l-4.093.722c-.146.026-.277.105-.368.223-.09.118-.133.265-.12.413.013.148.08.286.19.386.11.1.252.156.4.156.036 0 .07-.003.105-.009l4.093-.722c.155-.027.293-.115.383-.244.09-.129.126-.288.098-.444-.027-.155-.115-.293-.244-.383-.13-.09-.289-.126-.444-.098zM56.237 48.689l-3.6-2.078c-.067-.04-.142-.065-.22-.075-.076-.01-.155-.005-.23.015-.076.02-.146.055-.208.103-.062.047-.114.107-.153.174-.039.068-.064.142-.074.22-.01.077-.005.155.015.23.02.076.055.147.102.209.048.061.107.113.175.152l3.6 2.078c.136.08.298.1.45.06.152-.041.282-.14.36-.277.08-.136.1-.298.06-.45-.041-.153-.14-.282-.277-.361zM40 27.531c-3.148.004-6.167 1.256-8.393 3.482-2.226 2.226-3.478 5.245-3.482 8.393-.005 1.593.314 3.17.938 4.637.623 1.466 1.538 2.79 2.689 3.891.537.504.966 1.11 1.26 1.785.296.674.451 1.401.457 2.137v2.988c0 .157.062.308.174.42.111.111.262.173.42.173h1.828c.142.99.636 1.894 1.39 2.548.755.654 1.72 1.014 2.72 1.014.998 0 1.963-.36 2.718-1.014.755-.654 1.248-1.559 1.39-2.547h1.829c.157 0 .308-.063.42-.174.11-.112.173-.263.173-.42v-2.988c.006-.736.161-1.463.456-2.137.295-.674.724-1.282 1.261-1.785 1.151-1.101 2.066-2.425 2.69-3.891.623-1.466.942-3.044.937-4.637-.004-3.148-1.256-6.166-3.482-8.393-2.226-2.226-5.245-3.478-8.393-3.482zm0 30.282c-.684-.001-1.347-.238-1.877-.67-.53-.433-.894-1.035-1.032-1.706h5.818c-.138.67-.502 1.273-1.032 1.705-.53.433-1.193.67-1.877.67zm-5.344-3.563v-1.781h10.688v1.781H34.656zm2.97-11.281H36.14c-.294 0-.58-.087-.825-.25-.244-.163-.434-.395-.547-.667-.112-.27-.141-.57-.084-.857.057-.288.198-.553.406-.76.208-.208.472-.35.76-.407.288-.057.587-.027.858.085s.503.303.666.547c.163.244.25.53.25.824v1.485zm3.562 8.312h-2.375v-7.125h2.375v7.125zm6.236-4.201c-1.17 1.106-1.898 2.599-2.05 4.201h-2.999v-7.125h1.484c.529 0 1.045-.157 1.485-.45.44-.294.782-.71.984-1.2.202-.487.255-1.025.152-1.543-.103-.518-.358-.994-.731-1.368-.374-.374-.85-.628-1.368-.731-.519-.103-1.056-.05-1.544.152s-.906.545-1.2.984c-.293.44-.45.956-.45 1.484v1.485h-2.374v-1.485c0-.528-.157-1.045-.45-1.484-.294-.44-.712-.782-1.2-.984-.488-.202-1.025-.255-1.544-.152-.518.103-.994.357-1.368.731-.373.374-.628.85-.73 1.368-.104.518-.051 1.056.151 1.544.202.488.545.905.984 1.199.44.293.956.45 1.485.45h1.484v7.125h-2.998c-.153-1.602-.881-3.095-2.05-4.201-1.036-.992-1.86-2.183-2.42-3.502-.562-1.319-.849-2.738-.844-4.172 0-2.834 1.126-5.553 3.13-7.557 2.004-2.004 4.723-3.13 7.557-3.13 2.835 0 5.553 1.126 7.557 3.13 2.005 2.004 3.13 4.723 3.13 7.557.005 1.434-.282 2.853-.843 4.172-.561 1.32-1.385 2.51-2.42 3.502zm-5.049-4.111v-1.485c0-.293.087-.58.25-.824s.395-.435.666-.547c.272-.112.57-.142.858-.084.288.057.553.198.76.406.208.207.349.472.406.76.058.288.028.586-.084.857-.113.272-.303.504-.547.667-.244.163-.531.25-.825.25h-1.484z"/>
        <path d="M49.131 36.782c-.576-1.978-1.777-3.716-3.422-4.956-1.646-1.239-3.649-1.913-5.709-1.92-.157 0-.309.063-.42.174-.111.112-.174.263-.174.42 0 .157.063.308.174.42.111.111.263.174.42.174 1.803.006 3.555.595 4.995 1.68 1.44 1.084 2.49 2.605 2.995 4.336.045.15.148.275.285.35.137.074.297.092.447.048.15-.043.277-.143.354-.279.076-.136.096-.297.055-.447z"/>
    </g>
    <defs>
        <clipPath id="prefix__clip0">
            <path fill="#fff" d="M0 0H38V38H0z" transform="translate(21 21)"/>
        </clipPath>
    </defs>
</svg>
