<svg xmlns="http://www.w3.org/2000/svg" width="48" height="50" fill="none" viewBox="0 0 48 50">
    <circle cx="23.501" cy="23.5" r="23.5" fill="#D7E8FA" fill-opacity=".4"/>
    <path fill="#3F78F3" d="M40.877 40.115c.298.15.662.03.812-.269l2.287-4.547c2.258-.245 4.022-2.163 4.022-4.485 0-2.488-2.024-4.511-4.511-4.511-.324 0-.64.035-.944.1l-7.849-7.848c.94-1.512 1.171-3.314.737-4.96.065-.055.128-.112.187-.171 1.24-1.24 1.24-3.255 0-4.493-.6-.6-1.397-.931-2.246-.931s-1.646.33-2.247.93c-.06.06-.116.123-.17.188-1.695-.447-3.555-.191-5.092.819l-9.438 6.202c-.514-.112-1.665-.303-2.852-.095-1.508.264-2.102 2.184-1.022 3.263l4.13 4.13c-.356.523-.548 1.14-.548 1.788 0 .852.332 1.653.935 2.256.602.603 1.404.935 2.256.935.647 0 1.264-.192 1.788-.548l4.13 4.13c1.078 1.079 3 .483 3.263-1.023.208-1.186.017-2.337-.095-2.85l3.537-5.383 7.128 7.128c-.065.305-.1.62-.1.944 0 .831.227 1.61.62 2.28l-5.291 10.524h-7.35c-2.792 0-5.064 2.272-5.064 5.065 0 .334.27.605.605.605h21.754c.334 0 .605-.271.605-.605 0-2.792-2.27-5.063-5.061-5.065l.819-1.63c.15-.298.03-.661-.269-.811-.298-.15-.662-.03-.812.268l-1.092 2.173h-2.781l4.77-9.488c.163.149.336.286.518.41.51.347 1.085.583 1.688.704.005 0 .01.002.014.003l-2.04 4.056c-.15.299-.03.662.269.812zm-1.088 4.712c1.92 0 3.517 1.411 3.808 3.251h-20.45c.29-1.84 1.888-3.25 3.808-3.25h12.834zM33.372 9.21c.525 0 1.02.204 1.391.576.696.695.76 1.786.195 2.555-.213-.418-.472-.809-.774-1.17-.244-.292-.514-.561-.805-.805-.362-.303-.753-.562-1.171-.775.335-.248.74-.381 1.164-.381zM19.324 27.206c-.53 0-1.027-.206-1.4-.58-.375-.374-.581-.872-.581-1.401 0-.32.076-.63.219-.907l1.334 1.335 1.335 1.334c-.277.143-.586.219-.907.219zm8.339-.148l-6.966-6.965c-.236-.236-.619-.236-.855 0s-.236.619 0 .855l7.372 7.372c.085.373.28 1.414.1 2.447-.099.564-.816.776-1.216.376L13.405 18.452c-.401-.402-.187-1.118.376-1.217 1.033-.18 2.074.015 2.447.1l1.915 1.915c.236.236.62.236.855 0 .236-.236.236-.62 0-.855l-1.508-1.509 9.036-5.938c1.809-1.189 4.169-1.086 5.866.18.387.29.737.64 1.028 1.03 1.267 1.697 1.368 4.056.18 5.864l-5.938 9.037zm11.877 1.567l-6.915-6.915 1.394-2.12 7.278 7.278c-.74.41-1.347 1.017-1.757 1.757zm.645 2.219v-.03c-.009-1.653 1.32-3.114 2.959-3.284.114-.012.228-.018.343-.018 1.82 0 3.301 1.481 3.301 3.302 0 1.79-1.431 3.251-3.21 3.3-1.815.05-3.377-1.456-3.393-3.27z"/>
</svg>
