<svg xmlns="http://www.w3.org/2000/svg" width="80" height="80" fill="none" viewBox="0 0 80 80">
    <circle cx="40" cy="40" r="40" fill="#FF4646" fill-opacity=".29"/>
    <path fill="#F85C5C" d="M50.105 30.063c-.043-.043-.075-.089-.125-.125-2.568-2.537-6.094-4.105-9.98-4.105s-7.412 1.569-9.98 4.105c-.043.043-.088.075-.125.125-2.536 2.568-4.104 6.094-4.104 9.98s1.568 7.412 4.104 9.98c.043.043.075.088.125.125 2.568 2.536 6.094 4.104 9.98 4.104s7.412-1.568 9.98-4.104c.043-.043.089-.076.125-.126 2.536-2.567 4.105-6.093 4.105-9.98 0-3.885-1.569-7.41-4.105-9.979zm-.464 18.833l-1.337-1.337c-.218-.217-.57-.217-.788 0-.217.218-.217.57 0 .788l1.338 1.337c-2.206 2.026-5.105 3.308-8.297 3.442V51.23c0-.307-.25-.557-.557-.557-.307 0-.557.25-.557.557v1.897c-3.191-.134-6.091-1.416-8.296-3.442l1.337-1.337c.217-.218.217-.57 0-.788-.218-.217-.57-.217-.788 0l-1.337 1.337c-2.026-2.205-3.308-5.105-3.442-8.296h1.897c.307 0 .557-.25.557-.557 0-.308-.25-.557-.557-.557h-1.897c.134-3.192 1.416-6.091 3.442-8.297l1.337 1.338c.216.216.572.215.788 0 .217-.218.217-.57 0-.788l-1.337-1.337c2.205-2.027 5.105-3.308 8.296-3.443v1.898c0 .307.25.556.557.556.308 0 .557-.249.557-.556v-1.898c3.192.135 6.091 1.416 8.297 3.443l-1.338 1.337c-.217.217-.217.57 0 .787.215.215.573.215.788 0l1.337-1.337c2.027 2.206 3.308 5.105 3.443 8.297h-1.898c-.307 0-.556.25-.556.557 0 .307.249.557.556.557h1.898c-.135 3.191-1.416 6.091-3.443 8.296z"/>
    <path fill="#F85C5C" d="M47.834 39.151l-1.492-.745c-.14-.07-.29-.106-.445-.106-.55 0-.997.447-.997.997v.19h-3.238c-.174-.52-.585-.931-1.104-1.105v-3.238h.189c.347 0 .664-.177.847-.473.183-.296.2-.658.044-.97l-.746-1.491c-.17-.34-.511-.551-.891-.551s-.722.21-.892.55l-.745 1.492c-.156.312-.14.674.043.97.183.296.5.473.848.473h.189v3.237c-.694.234-1.196.89-1.196 1.662 0 .967.786 1.753 1.753 1.753.772 0 1.428-.502 1.661-1.196H44.9v.189c0 .55.447.997.997.997.155 0 .305-.035.445-.106l1.492-.746c.34-.17.55-.511.55-.891.001-.38-.21-.722-.55-.892zm-7.833-6.234l.556 1.113h-1.113l.557-1.113zm0 7.765c-.352 0-.64-.287-.64-.64 0-.352.287-.638.64-.638.352 0 .639.286.639.639 0 .352-.287.639-.64.639zm6.013-.083v-1.113l1.113.557-1.113.556zM34.071 43.722c-.307 0-.556.25-.556.557v1.073c0 .307.249.557.556.557.308 0 .557-.25.557-.557v-1.073c0-.308-.25-.557-.557-.557zM45.928 43.722c-.307 0-.556.25-.556.557v1.073c0 .307.249.557.556.557.308 0 .557-.25.557-.557v-1.073c0-.308-.25-.557-.557-.557zM41.83 44.858c-.232-.203-.584-.18-.786.053-.254.29-.635.456-1.044.456-.41 0-.79-.166-1.044-.456-.203-.232-.555-.256-.786-.053-.232.202-.255.554-.053.786.466.532 1.152.837 1.883.837.73 0 1.417-.305 1.882-.838.202-.231.179-.583-.053-.785z"/>
    <path fill="#F85C5C" d="M53.438 50.899c2.485-3.064 3.836-6.856 3.836-10.856 0-2.362-.472-4.65-1.369-6.76.45-.962.686-2.024.686-3.09 0-4.02-3.27-7.291-7.29-7.291-1.212 0-2.403.301-3.463.874-1.142-.41-2.33-.696-3.548-.856C42.097 21.83 41.144 21 40 21c-1.144 0-2.096.83-2.29 1.92-1.217.16-2.406.447-3.548.856-1.06-.573-2.25-.875-3.462-.875-4.02 0-7.291 3.271-7.291 7.291 0 1.067.237 2.13.686 3.09-.897 2.11-1.369 4.4-1.369 6.761 0 1.891.304 3.75.904 5.527.098.291.414.448.705.35.291-.099.448-.415.35-.706-.561-1.661-.845-3.401-.845-5.171 0-2.27.465-4.467 1.349-6.484.011-.02.022-.038.03-.059 1.739-3.92 5.082-7.08 9.096-8.588 3.63-1.365 7.741-1.367 11.37 0 4.032 1.515 7.347 4.646 9.095 8.588l.031.059c.884 2.017 1.35 4.215 1.35 6.484 0 3.832-1.327 7.46-3.76 10.362l-.013.014c-.66.786-1.392 1.511-2.188 2.16-.905.737-1.895 1.341-2.918 1.9-2.23 1.127-4.71 1.724-7.282 1.724-2.576 0-5.095-.609-7.364-1.772-1.911-.98-3.62-2.343-5.003-3.986-.795-.945-1.483-1.98-2.047-3.088-.14-.274-.475-.384-.75-.244-.273.139-.383.474-.243.748.55 1.083 1.212 2.1 1.97 3.037l-1.445 4.608c-.26.828-.114 1.705.4 2.404.926 1.261 2.808 1.464 3.98.408l3.007-2.709c2.326 1.122 4.884 1.708 7.495 1.708 2.64 0 5.19-.59 7.499-1.704l3.003 2.705c1.171 1.055 3.049.86 3.98-.408.514-.7.66-1.575.4-2.404L53.438 50.9zm-25.653-23.07c-1.219 1.219-2.233 2.588-3.026 4.066-.157-.548-.236-1.117-.236-1.703 0-3.406 2.77-6.177 6.177-6.177.698 0 1.387.118 2.038.345-1.818.844-3.493 2.009-4.953 3.468zM41 22.798c-.665-.04-1.332-.04-1.998 0l-.095.004c.196-.407.613-.69 1.094-.69.482 0 .898.283 1.094.69l-.095-.005zm14.242 9.096c-.792-1.478-1.807-2.847-3.026-4.067-1.46-1.46-3.135-2.624-4.953-3.468.651-.227 1.34-.345 2.038-.345 3.407 0 6.178 2.771 6.178 6.177 0 .585-.08 1.155-.237 1.703zM28.753 57.49c-.688.62-1.79.505-2.337-.239-.302-.41-.388-.925-.235-1.412l1.24-3.957c.147.156.296.31.449.46 1.069 1.054 2.279 1.973 3.584 2.716l-2.701 2.432zm24.832-.239c-.547.745-1.651.858-2.338.24l-2.697-2.43c.636-.364 1.25-.77 1.84-1.215.778-.589 1.508-1.244 2.178-1.953l.011-.012 1.24 3.958c.153.487.067 1.001-.234 1.412z"/>
</svg>
