<svg xmlns="http://www.w3.org/2000/svg" width="80" height="80" fill="none" viewBox="0 0 80 80">
    <circle cx="40" cy="40" r="40" fill="#32BA9C" fill-opacity=".4"/>
    <g clip-path="url(#prefix__clip0)">
        <path fill="#1CB190" d="M56.907 27.044l2.647-2.646c.437-.437.567-1.088.33-1.659-.236-.57-.788-.939-1.406-.939h-.993l-1.283-1.283v-.993c0-.84-.686-1.524-1.528-1.524-.401 0-.781.159-1.07.448l-2.646 2.646c-.288.288-.446.67-.446 1.076v2.71c-3.336-2.738-7.51-4.238-11.83-4.238-4.606 0-9.033 1.698-12.467 4.78-.241.217-.26.587-.045.828.216.241.587.261.828.045 3.218-2.89 7.367-4.481 11.683-4.481 4.047 0 7.96 1.404 11.085 3.967l-1.892 1.892c-2.614-2.065-5.857-3.198-9.193-3.198-8.186 0-14.846 6.66-14.846 14.846s6.66 14.846 14.846 14.846 14.846-6.66 14.846-14.846c0-3.336-1.133-6.579-3.198-9.193l1.892-1.892c2.563 3.126 3.967 7.038 3.967 11.085 0 9.654-7.853 17.507-17.507 17.507-9.653 0-17.507-7.854-17.507-17.507 0-4.181 1.504-8.231 4.236-11.405.211-.246.184-.616-.062-.827-.245-.211-.615-.183-.826.062-2.915 3.387-4.52 7.709-4.52 12.17 0 10.3 8.38 18.679 18.68 18.679C48.98 58 57.36 49.62 57.36 39.32c0-4.32-1.5-8.494-4.237-11.83h2.709c.406 0 .788-.158 1.075-.445zm-5.12-5.12l2.646-2.648c.21-.21.597-.067.597.248v.993l-3.346 3.346v-1.692c0-.094.036-.182.102-.248zm.568 17.397c0 7.54-6.134 13.674-13.674 13.674-7.54 0-13.674-6.134-13.674-13.674 0-7.54 6.134-13.674 13.674-13.674 3.026 0 5.97 1.012 8.358 2.86l-1.9 1.9c-1.87-1.356-4.143-2.099-6.458-2.099-6.072 0-11.012 4.94-11.012 11.013 0 6.072 4.94 11.012 11.012 11.012 2.656 0 5.223-.962 7.228-2.71.244-.212.269-.582.056-.826-.212-.244-.582-.27-.826-.057-1.792 1.561-4.085 2.421-6.458 2.421-5.426 0-9.84-4.414-9.84-9.84s4.414-9.84 9.84-9.84c2.037 0 3.967.608 5.62 1.766l-1.924 1.923c-1.116-.674-2.384-1.028-3.696-1.028-3.959 0-7.18 3.22-7.18 7.179s3.221 7.18 7.18 7.18c3.959 0 7.18-3.221 7.18-7.18 0-1.312-.355-2.58-1.03-3.695l1.924-1.924c1.158 1.653 1.767 3.582 1.767 5.619 0 2.093-.652 4.094-1.886 5.785-.191.262-.134.628.128.82.261.19.628.133.818-.129 1.382-1.893 2.111-4.133 2.111-6.476 0-2.315-.742-4.588-2.099-6.459l1.9-1.9c1.85 2.389 2.86 5.333 2.86 8.359zm-13.955.524c.3.248.683.399 1.094.399.457 0 .905-.186 1.228-.509l.112-.112c-.147 1.056-1.056 1.872-2.153 1.872-1.199 0-2.174-.975-2.174-2.174 0-1.096.816-2.006 1.872-2.153-.371.371-.62.8-.62 1.34 0 .532.251 1.017.64 1.337zm-3.065-.524c0 1.845 1.501 3.346 3.346 3.346 1.845 0 3.346-1.501 3.346-3.346 0-.27-.033-.536-.096-.795l2.043-2.043c.469.87.714 1.839.714 2.838 0 3.312-2.695 6.007-6.007 6.007s-6.007-2.695-6.007-6.007c0-3.313 2.695-6.007 6.007-6.007 1 0 1.968.245 2.838.715l-2.043 2.042c-.26-.063-.525-.096-.795-.096-1.845 0-3.346 1.5-3.346 3.346zm4.558-.414c-.214.214-.583.214-.797 0-.217-.217-.217-.581 0-.798l16.52-16.52.798.797-16.52 16.52zm17.592-15.935h.993c.31 0 .465.38.248.597l-2.647 2.647c-.065.065-.155.102-.247.102h-1.693l3.346-3.346z"/>
    </g>
    <defs>
        <clipPath id="prefix__clip0">
            <path fill="#fff" d="M0 0H40V40H0z" transform="translate(20 18)"/>
        </clipPath>
    </defs>
</svg>
