<svg xmlns="http://www.w3.org/2000/svg" width="24" height="22" fill="none" viewBox="0 0 24 22">
    <path fill="#3F78F3" fill-rule="evenodd" d="M22.703 1.495c.529.526.529 1.379 0 1.905l-10.56 10.506c-.529.526-1.386.526-1.914 0l-4.333-4.31c-.528-.526-.528-1.38 0-1.905.529-.526 1.386-.526 1.915 0l3.375 3.358 9.603-9.554c.528-.526 1.385-.526 1.914 0z" clip-rule="evenodd"/>
    <path fill="#3F78F3" fill-rule="evenodd" d="M12.029 2.682c-1.689-.208-3.4.102-4.91.89-1.507.787-2.74 2.015-3.533 3.52-.794 1.506-1.11 3.217-.907 4.907.202 1.689.915 3.277 2.041 4.551 1.127 1.275 2.616 2.177 4.267 2.586 1.652.408 3.39.305 4.98-.298 1.592-.603 2.962-1.675 3.929-3.075.967-1.4 1.485-3.061 1.485-4.763 0-.723.586-1.31 1.31-1.31.723 0 1.309.587 1.309 1.31 0 2.233-.68 4.414-1.949 6.251-1.27 1.838-3.068 3.246-5.156 4.036-2.089.791-4.369.927-6.537.391-2.167-.536-4.12-1.72-5.6-3.393C1.28 16.612.344 14.528.078 12.31c-.266-2.217.15-4.463 1.19-6.438l1.16.61-1.16-.61c1.042-1.976 2.66-3.588 4.64-4.622C7.886.216 10.133-.191 12.35.083c.717.089 1.227.743 1.138 1.46-.088.718-.742 1.228-1.46 1.14z" clip-rule="evenodd"/>
</svg>
