<svg xmlns="http://www.w3.org/2000/svg" width="80" height="80" fill="none" viewBox="0 0 80 80">
    <circle cx="40" cy="40" r="40" fill="#FBEC6C" fill-opacity=".48"/>
    <path fill="#DFCA0F" d="M33.125 34.515c0 .989.293 1.956.843 2.778.55.822 1.33 1.463 2.244 1.841.913.379 1.918.478 2.888.285s1.861-.67 2.56-1.369c.7-.699 1.176-1.59 1.369-2.56.193-.97.094-1.975-.285-2.889-.378-.913-1.019-1.694-1.841-2.243-.822-.55-1.79-.843-2.778-.843-1.326.001-2.596.529-3.534 1.466-.937.937-1.465 2.208-1.466 3.534zm8.75 0c0 .742-.22 1.467-.632 2.083-.412.617-.998 1.098-1.683 1.381-.685.284-1.44.358-2.167.214-.727-.145-1.395-.502-1.92-1.026-.524-.525-.881-1.193-1.026-1.92-.145-.728-.07-1.482.213-2.167.284-.685.765-1.271 1.382-1.683.616-.412 1.341-.632 2.083-.632.994.001 1.947.396 2.65 1.1.703.703 1.099 1.656 1.1 2.65zM38.125 25.765c.166 0 .325-.066.442-.183.117-.117.183-.276.183-.442 0-.166-.066-.325-.183-.442-.117-.117-.276-.183-.442-.183-2.651.003-5.193 1.058-7.068 2.932-1.874 1.875-2.929 4.417-2.932 7.068 0 .166.066.325.183.442.117.117.276.183.442.183.166 0 .325-.066.442-.183.117-.117.183-.276.183-.442.003-2.32.925-4.544 2.566-6.184 1.64-1.64 3.864-2.564 6.184-2.566z"/>
    <path fill="#D0BD11" d="M60 33.265c0-.723-.208-1.43-.6-2.038-.393-.607-.952-1.088-1.612-1.384-.659-.297-1.39-.396-2.104-.287-.715.109-1.383.422-1.923.902-.541.48-.931 1.106-1.125 1.803-.193.696-.18 1.434.036 2.124.216.69.627 1.302 1.184 1.764.556.461 1.234.752 1.952.837.585 2.05.585 4.224 0 6.275-.585 2.05-1.731 3.896-3.31 5.33l-1.46 1.328c-.155-.309-.392-.568-.686-.75-.294-.181-.632-.278-.977-.279h-2.5v-5.463c1.773-1.738 2.989-3.965 3.491-6.396.503-2.432.27-4.958-.669-7.257-.938-2.298-2.54-4.265-4.601-5.65C43.035 22.739 40.608 22 38.125 22c-2.483 0-4.91.74-6.97 2.124-2.062 1.385-3.664 3.352-4.602 5.65-.939 2.299-1.172 4.825-.67 7.257.504 2.431 1.719 4.658 3.492 6.396v5.463h-2.5c-.497 0-.974.198-1.325.55-.352.351-.55.828-.55 1.325v3.125c0 .166.066.325.183.442.117.117.276.183.442.183H51.3c.155 0 .304-.057.419-.161l3.3-2.981v-.001c2.162-1.962 3.713-4.504 4.467-7.323.754-2.82.68-5.796-.213-8.575.472-.64.727-1.414.727-2.209zm-33.125 1.25c0-2.225.66-4.4 1.896-6.25 1.236-1.85 2.993-3.292 5.049-4.144 2.056-.851 4.318-1.074 6.5-.64 2.182.434 4.187 1.506 5.76 3.079 1.573 1.573 2.645 3.578 3.079 5.76.434 2.182.211 4.444-.64 6.5-.852 2.056-2.294 3.813-4.144 5.049-1.85 1.236-4.025 1.896-6.25 1.896-2.983-.004-5.842-1.19-7.951-3.299-2.11-2.109-3.296-4.968-3.299-7.951zm18.75 9.995v4.38h-15v-4.38c2.162 1.626 4.795 2.505 7.5 2.505s5.338-.88 7.5-2.505zM50 53.265H26.25v-2.5c0-.166.066-.325.183-.442.117-.117.276-.183.442-.183h22.5c.166 0 .325.066.442.183.117.117.183.276.183.442v2.5zm3.75-20c0-.495.147-.978.421-1.389.275-.411.666-.732 1.122-.92.457-.19.96-.24 1.445-.143.485.097.93.335 1.28.684.35.35.587.795.684 1.28.096.485.047.988-.142 1.445-.19.456-.51.847-.921 1.122-.411.274-.895.421-1.389.421-.663 0-1.298-.264-1.767-.733-.469-.469-.732-1.104-.733-1.767zm.431 17.18l-2.931 2.648v-1.677l2.088-1.9c1.716-1.557 2.974-3.554 3.636-5.775.661-2.22.703-4.58.118-6.822.414-.1.809-.266 1.17-.49.682 2.485.661 5.11-.06 7.585-.72 2.474-2.112 4.7-4.02 6.431z"/>
    <path fill="#DFCA0F" d="M58.125 33.265c0-.37-.11-.733-.316-1.042-.206-.308-.499-.549-.841-.69-.343-.142-.72-.18-1.084-.107-.364.072-.698.25-.96.513-.262.262-.44.596-.513.96-.072.364-.035.74.107 1.083.142.343.382.636.69.842.309.206.671.316 1.042.316.497 0 .974-.198 1.325-.55.352-.351.55-.828.55-1.325zm-2.5 0c0-.124.037-.245.105-.347.069-.103.167-.183.28-.23.115-.048.24-.06.362-.036.121.024.233.084.32.171.087.087.147.199.171.32.024.121.012.247-.036.361-.047.114-.127.212-.23.28-.102.07-.223.106-.347.106-.166 0-.325-.066-.442-.183-.117-.117-.183-.276-.183-.442z"/>
</svg>
