<svg xmlns="http://www.w3.org/2000/svg" width="52" height="52" fill="none" viewBox="0 0 52 52">
    <circle cx="23.5" cy="23.5" r="23.5" fill="#D7E8FA" fill-opacity=".4"/>
    <path fill="#3F78F3" d="M51.87 24.334l-2.746-6.932c-.137-.346-.529-.515-.875-.378s-.515.528-.378.874l2.747 6.932c.099.25-.024.535-.274.634l-1.29.511c-.247.098-.537-.028-.634-.274L43.75 13.92c-.099-.25.024-.534.275-.633l1.29-.511c.25-.1.534.023.633.274l.941 2.373c.137.346.529.515.875.378s.515-.528.378-.874l-.94-2.374c-.373-.941-1.443-1.404-2.384-1.03l-1.29.51c-.734.291-1.175 1.007-1.157 1.754l-28.67 14.051c-1.01.494-1.567 1.577-1.445 2.65l-2.769 1.098c-.305-.302-.72-.48-1.17-.48-.21 0-.417.04-.614.118l-.654.26c-.844.334-1.27 1.318-.936 2.163l1.372 3.462c.334.843 1.32 1.27 2.164.935l.654-.259c.414-.164.74-.48.916-.888.083-.192.127-.394.135-.597l2.77-1.097c.495.662 1.283 1.056 2.107 1.056.253 0 .509-.037.76-.114l2.9-.894c.356-.11.556-.486.446-.842-.11-.356-.487-.555-.843-.446l-2.9.894c-.627.193-1.307-.134-1.55-.744l-1.37-3.461c-.242-.61.03-1.315.62-1.603l28.472-13.954 4.131 10.426-10.284 3.169c-.783-1.743-2.424-2.929-4.333-3.122l-.021-.002c-2.597-.254-5.069 1.462-5.723 3.992-.185.715-.219 1.474-.1 2.203.003.02.005.04.01.061l-4.428 1.364c-.356.11-.555.487-.446.842.11.356.487.556.843.446l4.43-1.365c.072.16.152.316.24.467l-9.073 13.92c-.894.182-1.57.974-1.57 1.921 0 1.081.88 1.96 1.96 1.96h4.19c1.08 0 1.96-.879 1.96-1.96 0-.696-.366-1.309-.915-1.657l7.515-11.53c.189.02.38.03.575.03.194 0 .385-.01.574-.03l7.515 11.53c-.549.348-.914.96-.914 1.657 0 1.081.879 1.96 1.96 1.96h4.188c1.081 0 1.96-.879 1.96-1.96 0-.947-.675-1.74-1.57-1.921l-9.071-13.92c.456-.789.718-1.702.718-2.676 0-.315-.029-.622-.08-.922l10.497-3.234c.175.197.391.356.64.464.445.192.955.2 1.405.021l1.29-.51c.941-.374 1.404-1.443 1.03-2.384zM9.983 36.36c-.032.075-.093.138-.174.17l-.654.26c-.163.064-.351-.017-.415-.18l-1.372-3.462c-.064-.162.018-.35.18-.414l.654-.26c.157-.061.349.014.415.18l1.371 3.461c.032.082.028.17-.005.245zm1.01-1.367l-.875-2.209 2.552-1.011.876 2.208-2.553 1.011zm11.6 15.035h-4.188c-.338 0-.613-.275-.613-.613 0-.337.275-.612.613-.612h4.188c.338 0 .613.275.613.612 0 .338-.275.613-.613.613zm-.365-2.573h-2.58l8.309-12.748c.484.482 1.054.862 1.68 1.127l.015.006.114.048-7.538 11.567zm8.72-12.627c-1.59-.339-2.93-1.68-3.184-3.31l-.002-.012c-.363-2.36 1.577-4.621 3.967-4.621 2.184 0 4.013 1.829 4.013 4.013 0 2.421-2.396 4.441-4.793 3.93zm14.717 14.587c0 .338-.275.613-.613.613h-4.188c-.338 0-.612-.275-.612-.613 0-.337.274-.612.612-.612h4.188c.338 0 .613.275.613.612zm-1.856-1.96h-2.58L33.69 35.889c.038-.015.076-.032.113-.048l.017-.007c.626-.264 1.196-.644 1.68-1.126l8.308 12.748z"/>
</svg>
