<svg xmlns="http://www.w3.org/2000/svg" width="80" height="80" fill="none" viewBox="0 0 80 80">
    <circle cx="40" cy="40" r="40" fill="#3247BA" fill-opacity=".22"/>
    <g fill="#334CD1" clip-path="url(#prefix__clip0)">
        <path d="M54.625 26.5H51.25c-.15 0-.292.06-.398.165-.105.105-.164.248-.164.398 0 .149.059.292.164.397.106.106.249.165.398.165h3.375c.447 0 .876.178 1.193.495.316.316.494.745.495 1.192v19.125H23.687V29.314c.001-.448.179-.877.495-1.193.317-.317.746-.495 1.193-.495h3.375c.15 0 .292-.06.398-.165.105-.105.165-.248.165-.398 0-.149-.06-.292-.165-.397-.106-.106-.249-.165-.398-.165h-3.375c-.746 0-1.46.297-1.988.825-.527.527-.824 1.242-.825 1.988v21.375c0 1.408 1.052 2.25 2.813 2.25h10.688v1.687c-.001.596-.238 1.169-.66 1.59-.422.422-.994.66-1.59.66-.15 0-.293.06-.398.165-.106.105-.165.248-.165.398 0 .149.06.292.165.397.105.106.248.165.398.165h12.374c.15 0 .293-.06.398-.165.106-.105.165-.248.165-.398 0-.149-.06-.292-.165-.397-.105-.106-.248-.165-.398-.165-.596 0-1.168-.238-1.59-.66-.422-.422-.659-.993-.66-1.59v-1.688h10.688c1.761 0 2.813-.84 2.813-2.25V29.314c-.001-.746-.298-1.461-.825-1.988-.527-.527-1.242-.824-1.988-.825zM43.674 56.875h-7.348c.555-.618.862-1.42.861-2.25v-1.688h5.626v1.688c-.001.83.306 1.632.86 2.25zm12.639-6.188c0 .279 0 1.126-1.688 1.126h-29.25c-1.688 0-1.688-.847-1.688-1.126v-1.124h32.626v1.124z"/>
        <path d="M38.875 51.25c2.104 0 2.813.165 2.813-.563 0-.149-.06-.292-.165-.397-.106-.106-.249-.165-.398-.165h-2.25c-.15 0-.292.06-.398.165-.105.105-.164.248-.164.398 0 .149.059.292.164.397.106.106.249.165.398.165zM25.938 46.188V29.875h2.812c.15 0 .292-.06.398-.165.105-.105.165-.248.165-.398 0-.149-.06-.292-.165-.397-.106-.106-.249-.165-.398-.165h-3.375c-.15 0-.292.06-.398.165-.105.105-.165.248-.165.398V46.75c0 .15.06.292.165.398.106.105.249.164.398.164h29.25c.15 0 .292-.059.398-.164.105-.106.164-.249.164-.398V29.312c0-.149-.059-.292-.164-.397-.106-.106-.249-.165-.398-.165H51.25c-.15 0-.292.06-.398.165-.105.105-.164.248-.164.398 0 .149.059.292.164.397.106.106.249.165.398.165h2.813v16.313h-4.5V22.561c0-.149-.06-.292-.165-.397-.106-.106-.249-.165-.398-.165H33.25c-.746 0-1.46.297-1.988.825-.527.527-.824 1.242-.825 1.988v21.375h-4.5zm22.5 0h-13.5V23.125h6.75v6.75c0 .111.032.22.094.312.062.093.15.165.253.208.103.042.216.053.325.032.109-.022.209-.076.288-.154l1.29-1.29 1.29 1.29c.078.078.178.132.287.154.11.021.222.01.325-.032.103-.043.19-.115.253-.208.061-.092.094-.2.094-.312v-6.75h2.25v23.063zm-3.376-23.063v5.392l-.727-.727c-.052-.052-.114-.094-.182-.122-.069-.028-.142-.043-.215-.043-.074 0-.148.015-.216.043-.068.028-.13.07-.182.122l-.727.727v-5.392h2.25zm-13.5 1.688c.001-.448.179-.877.495-1.193.317-.317.746-.495 1.193-.495h.563v23.063h-2.25V24.811z"/>
    </g>
    <defs>
        <clipPath id="prefix__clip0">
            <path fill="#fff" d="M0 0H36V36H0z" transform="translate(22 22)"/>
        </clipPath>
    </defs>
</svg>
