<svg width="48" height="48" viewBox="0 0 48 48" fill="none" xmlns="http://www.w3.org/2000/svg">
<path fill-rule="evenodd" clip-rule="evenodd" d="M47.9805 29.977C47.8807 29.3435 47.4111 28.8317 46.7887 28.6777C46.6843 28.652 38.2481 26.533 32.0499 22.7187L25.2821 15.9493C21.4719 9.75414 19.3479 1.31542 19.3221 1.21144C19.1683 0.588897 18.6563 0.119268 18.0228 0.019479C17.3895 -0.0803097 16.7579 0.209125 16.42 0.754134L14.3766 4.04955C13.2181 3.00512 11.4756 2.50941 10.0519 2.88547L9.93549 2.91646C4.89004 4.46199 1.68602 7.666 0.140481 12.7113L0.109611 12.8278C-0.244677 14.4004 0.276165 16.1661 1.43654 17.3266C1.52377 17.4138 1.6153 17.4981 1.70839 17.5769L1.74357 17.6057C5.58138 20.6725 9.31857 23.9161 12.9021 27.287C9.69092 29.067 6.89946 29.9519 4.76632 29.857C4.41107 29.8411 4.08682 30.0584 3.96609 30.3929C3.84536 30.7275 3.95604 31.1016 4.23961 31.3165L6.64855 33.1424L3.91524 35.7647C3.6806 35.9898 3.60283 36.3331 3.71745 36.6373C3.75909 36.7478 3.82299 36.8451 3.90315 36.9253C4.04398 37.0662 4.23483 37.1533 4.4417 37.1624C6.85579 37.2697 9.51169 36.7517 12.3794 35.6202C11.2478 38.4879 10.7299 41.1437 10.8372 43.5577C10.8464 43.7646 10.9336 43.9556 11.0745 44.0964C11.1546 44.1766 11.2521 44.2405 11.3626 44.2821C11.6667 44.3967 12.0101 44.3192 12.2352 44.0846L14.8576 41.351L16.6832 43.7603C16.8981 44.0435 17.2721 44.1546 17.6067 44.0335C17.9411 43.9128 18.1583 43.5884 18.1425 43.2333C18.0477 41.1001 18.9327 38.3085 20.7127 35.0971C24.0854 38.6823 27.3292 42.4195 30.3942 46.2561L30.4233 46.292C30.5019 46.3846 30.5859 46.4758 30.6728 46.5631C31.8332 47.7235 33.5992 48.2446 35.1719 47.8905L35.2889 47.8595C40.3346 46.3133 43.5385 43.1094 45.0836 38.0643C45.0836 38.0643 45.9254 35.5257 43.9505 33.6235L47.246 31.5803C47.7909 31.2419 48.0803 30.6105 47.9805 29.977ZM17.2407 5.48046C17.5573 6.4732 17.9476 7.62316 18.4099 8.85892C17.7786 8.11696 17.153 7.37058 16.5344 6.61941L17.2407 5.48046ZM3.75538 15.1323C7.86935 18.4208 11.8698 21.9089 15.6933 25.538L22.7621 18.4694C19.585 15.1222 16.5174 11.6395 13.5971 8.0642L13.1128 7.47025C12.8598 7.15772 12.6075 6.84472 12.3568 6.53099C11.9045 5.95906 11.2539 5.8345 10.8013 5.9855C6.79943 7.22975 4.45403 9.57526 3.20989 13.5767C3.06033 14.0704 3.31579 14.6969 3.69089 15.072C3.71195 15.0931 3.73361 15.1133 3.75538 15.1323ZM42.0144 37.1987C40.7706 41.1999 38.4253 43.5457 34.4236 44.79C33.9335 44.8964 33.3029 44.6839 32.9278 44.3089C32.9069 44.2877 32.8865 44.2666 32.8679 44.2449C29.5816 40.1324 26.0936 36.1317 22.4624 32.3067L29.5309 25.2384C32.8786 28.4164 36.3615 31.4839 39.9367 34.404L40.53 34.8875C40.8422 35.1406 41.1556 35.393 41.4697 35.6437C41.4914 35.6625 41.5128 35.6826 41.5337 35.7036C41.9083 36.0784 42.152 36.7189 42.0144 37.1987ZM39.1406 29.5898C39.8828 30.2216 40.6295 30.847 41.3804 31.4656L42.5196 30.7592C41.5268 30.4425 40.3766 30.0522 39.1406 29.5898Z" fill="white"/>
</svg>
