<svg xmlns="http://www.w3.org/2000/svg" width="60" height="45" fill="none" viewBox="0 0 60 45">
    <path fill="#298FFD" fill-rule="evenodd" d="M2.5 45c15.27-3.015 25-16.46 25-29.313C27.5 5.762 20.535 0 12.998 0 6.46 0 0 4.492 0 12.447 0 18.953 4.763 24.34 10.99 25.32 10.447 30.33 5.577 37.597.04 39.685L2.5 45zM35 45c15.27-3.015 25-16.46 25-29.313C60 5.762 53.035 0 45.498 0 38.96 0 32.5 4.492 32.5 12.447c0 6.506 4.763 11.893 10.99 12.873-.543 5.01-5.413 12.277-10.95 14.365L35 45z" clip-rule="evenodd"/>
</svg>
