<svg xmlns="http://www.w3.org/2000/svg" width="47" height="49" fill="none" viewBox="0 0 47 49">
    <circle cx="23.5" cy="23.5" r="23.5" fill="#D7E8FA" fill-opacity=".4"/>
    <path fill="#3F78F3" d="M30.206 26.637H19.374c-.302 0-.548.245-.548.548 0 .303.246.549.548.549h10.832c.303 0 .548-.246.548-.549 0-.303-.245-.548-.548-.548zM38.885 25.79c-.15-.262-.486-.352-.748-.202l-2.567 1.476.236-.855c.08-.291-.09-.593-.383-.674-.292-.08-.593.091-.674.383l-.3 1.088c-.108.39.03.804.35 1.053.305.236.756.279 1.108.076l2.776-1.596c.263-.15.353-.486.202-.749zM30.206 30.817H19.374c-.302 0-.548.245-.548.548 0 .303.246.548.548.548h10.832c.303 0 .548-.245.548-.548 0-.303-.245-.548-.548-.548zM38.885 29.97c-.15-.262-.486-.353-.748-.202l-2.567 1.476.236-.855c.08-.292-.09-.593-.383-.674-.292-.08-.593.09-.674.383l-.3 1.087c-.108.392.03.805.35 1.054.306.237.755.28 1.108.076l2.776-1.596c.263-.151.353-.486.202-.749zM30.206 34.996H19.374c-.302 0-.548.246-.548.548 0 .303.246.549.548.549h10.832c.303 0 .548-.246.548-.549 0-.302-.245-.548-.548-.548zM38.885 34.15c-.15-.263-.486-.353-.748-.202l-2.567 1.475.236-.854c.08-.292-.09-.594-.383-.675-.292-.08-.593.091-.674.383l-.3 1.088c-.108.391.03.805.35 1.053.319.247.76.277 1.108.077l2.776-1.597c.263-.15.353-.486.202-.748zM30.206 39.176H19.374c-.302 0-.548.245-.548.548 0 .303.246.548.548.548h10.832c.303 0 .548-.245.548-.548 0-.303-.245-.548-.548-.548zM38.885 38.33c-.15-.263-.486-.353-.748-.203l-2.567 1.476.236-.855c.08-.291-.09-.593-.383-.674-.292-.08-.593.091-.674.383l-.3 1.087c-.108.392.03.805.35 1.054.319.247.76.277 1.108.076l2.776-1.596c.263-.151.353-.486.202-.749z"/>
    <path fill="#3F78F3" d="M40.306 11H25.199c-.143 0-.286.06-.387.16l-9.652 9.652c-.1.102-.16.245-.16.387v20.197c0 .302.245.548.548.548.303 0 .548-.246.548-.548V21.748h6.95c1.21 0 2.238-.8 2.58-1.899.08-.26.122-.53.122-.802v-6.95h14.558c.693 0 1.257.564 1.257 1.257v7.427c0 .303.245.549.548.549.303 0 .548-.246.548-.549v-7.427c0-1.298-1.056-2.354-2.353-2.354zM24.65 19.047c0 .87-.729 1.604-1.604 1.604h-6.175l7.78-7.78v6.176zM42.11 22.426c-.302 0-.547.246-.547.548v23.1c0 .693-.564 1.257-1.257 1.257H17.354c-.694 0-1.257-.564-1.257-1.257v-2.485c0-.303-.246-.549-.549-.549-.303 0-.548.246-.548.549v2.485c0 1.297 1.056 2.353 2.353 2.353h22.953c1.297 0 2.353-1.056 2.353-2.353v-23.1c0-.302-.245-.548-.548-.548z"/>
</svg>
